<svg width="72" height="72" viewBox="0 0 72 72" fill="none" xmlns="http://www.w3.org/2000/svg">
<path fill-rule="evenodd" clip-rule="evenodd" d="M46.2 6C46.8 9.3 45.3 12.6 43.5 15C41.7 17.4 38.4 19.5 35.1 19.2C34.5 15.9 36 12.9 37.8 10.5C39.9 8.1 43.2 6.3 46.2 6ZM55.8 58.2C57.3 55.8 58.2 54.3 59.4 51.6C50.1 48 48.6 34.8 57.9 30C55.2 26.4 51.3 24.6 47.4 24.6C44.7 24.6 42.9 25.2 41.1 25.8C39.6 26.4 38.4 26.7 36.9 26.7C35.1 26.7 33.9 26.1 32.1 25.5C30.3 24.9 28.5 24.3 26.4 24.3C22.2 24.3 17.7 26.7 15 31.2C11.1 37.2 11.7 48.9 18 58.5C20.7 62.1 23.7 66 27.6 66C29.4 66 30.3 65.4 31.5 65.1C33 64.5 34.5 63.9 36.9 63.9C39.6 63.9 40.8 64.5 42.3 65.1C43.5 65.7 44.4 66 46.2 66C50.4 66 53.4 61.5 55.8 58.2Z" stroke="#263040" stroke-width="4.5" stroke-miterlimit="10" stroke-linecap="round" stroke-linejoin="round"/>
</svg>
