<svg width="72" height="72" viewBox="0 0 72 72" fill="none" xmlns="http://www.w3.org/2000/svg">
<path d="M64.8 30.6H36.6V41.7H53.1C52.8 44.4 51 48.6 47.1 51.3C44.7 53.1 41.1 54.3 36.6 54.3C28.8 54.3 21.9 49.2 19.5 41.7C18.9 39.9 18.6 37.8 18.6 35.7C18.6 33.6 18.9 31.5 19.5 29.7C19.8 29.1 19.8 28.5 20.1 28.2C22.8 21.9 29.1 17.4 36.6 17.4C42.3 17.4 45.9 19.8 48.3 21.9L56.7 13.5C51.6 9 44.7 6 36.6 6C24.9 6 14.7 12.6 9.89999 22.5C7.79999 26.7 6.59999 31.2 6.59999 36C6.59999 40.8 7.79999 45.3 9.89999 49.5C14.7 59.4 24.9 66 36.6 66C44.7 66 51.6 63.3 56.4 58.8C62.1 53.7 65.4 45.9 65.4 36.6C65.4 34.2 65.1 32.4 64.8 30.6Z" stroke="#263040" stroke-width="4.5" stroke-miterlimit="10" stroke-linecap="round" stroke-linejoin="round"/>
</svg>
