<svg width="149" height="132" viewBox="0 0 149 132" fill="none" xmlns="http://www.w3.org/2000/svg">
<circle opacity="0.2" cx="74" cy="66" r="65" stroke="#277C57" stroke-width="2"/>
<circle opacity="0.5" cx="74" cy="66" r="52" stroke="#277C57" stroke-width="4"/>
<circle cx="74" cy="66" r="42" fill="#277C57"/>
<path d="M11.0826 112.071C10.4507 111.538 10.0228 110.854 9.69972 110.097C9.24623 109.033 9.00235 107.907 8.76632 106.779C8.71242 106.522 8.68958 106.256 8.59568 106C8.49534 106.05 8.50263 106.13 8.48846 106.201C8.24706 107.419 7.99632 108.633 7.56388 109.801C6.99099 111.348 5.97029 112.425 4.45404 113.023C3.42323 113.43 2.35447 113.683 1.27869 113.917C1.03688 113.969 0.78492 113.982 0.5 114.094C0.625867 114.123 0.696129 114.141 0.767085 114.155C2.06178 114.417 3.35174 114.693 4.58212 115.203C5.95363 115.771 6.91537 116.749 7.47509 118.148C7.91258 119.242 8.16424 120.387 8.40392 121.536C8.45202 121.767 8.45916 122.01 8.56432 122.246C8.62135 122.171 8.6272 122.112 8.63873 122.053C8.84477 120.996 9.05221 119.939 9.38662 118.915C9.65011 118.107 9.98058 117.334 10.5185 116.67C11.2182 115.805 12.1519 115.32 13.164 114.965C14.1435 114.622 15.1534 114.399 16.1678 114.196C16.2899 114.171 16.4264 114.18 16.5415 114.094C16.4813 114.029 16.4174 114.019 16.3523 114.007C15.4434 113.84 14.5413 113.64 13.6562 113.369C12.7378 113.088 11.8533 112.732 11.0826 112.071Z" fill="#FFA001"/>
<path d="M142.498 17.7846C142.354 17.5658 142.182 17.3717 141.984 17.2026C141.413 16.7089 140.757 16.4743 140.08 16.2915C139.608 16.1639 139.129 16.0633 138.636 15.9467C138.694 15.8396 138.785 15.8417 138.866 15.8246C139.461 15.6985 140.053 15.5614 140.634 15.3729C141.86 14.9749 142.657 14.1564 143.04 12.9012C143.217 12.3214 143.348 11.7319 143.469 11.139C143.491 11.0306 143.494 11.0311 143.588 10.9199C143.705 11.2136 143.729 11.5193 143.797 11.8134C143.925 12.3681 144.076 12.915 144.298 13.4391C144.724 14.4446 145.498 15.0369 146.492 15.3723C147.077 15.57 147.677 15.7054 148.281 15.8258C148.357 15.8409 148.441 15.8414 148.5 15.9364C148.259 16.0274 148.013 16.055 147.773 16.1077C147.177 16.2386 146.592 16.4018 146.029 16.6428C145.021 17.0738 144.435 17.8722 144.1 18.9043C143.894 19.5383 143.765 20.1901 143.625 20.8399C143.614 20.8903 143.614 20.9447 143.547 21.0004C143.442 20.6853 143.414 20.3672 143.342 20.0602C143.155 19.2652 142.954 18.4755 142.498 17.7846Z" fill="#FFA001"/>
<path d="M70.2157 76.2938C69.8252 76.6843 69.192 76.6843 68.8015 76.2938L59.7657 67.258C59.3752 66.8675 59.3752 66.2343 59.7657 65.8438L60.964 64.6455C61.3545 64.255 61.9877 64.255 62.3782 64.6455L69.5086 71.7759L85.6223 55.6622C86.0128 55.2717 86.646 55.2717 87.0365 55.6622L88.2348 56.8605C88.6253 57.251 88.6253 57.8842 88.2348 58.2747L70.2157 76.2938Z" fill="white"/>
</svg>
