<svg width="72" height="72" viewBox="0 0 72 72" fill="none" xmlns="http://www.w3.org/2000/svg">
<path d="M27 66H21C9 66 6 63 6 51V21C6 9 9 6 21 6H25.5C30 6 30.9901 7.32004 32.7001 9.60004L37.2001 15.6C38.3401 17.1 39 18 42 18H51C63 18 66 21 66 33V39" stroke="#263040" stroke-width="4.5" stroke-miterlimit="10" stroke-linecap="round" stroke-linejoin="round"/>
<path d="M41.28 54.9597C34.23 55.4697 34.23 65.6697 41.28 66.1797H57.96C59.97 66.1797 61.95 65.4296 63.42 64.0796C68.37 59.7596 65.7299 51.1196 59.2199 50.3096C56.8799 36.2396 36.5401 41.5796 41.3401 54.9896" stroke="#263040" stroke-width="4.5" stroke-miterlimit="10" stroke-linecap="round" stroke-linejoin="round"/>
</svg>
